<?xml version="1.0" encoding="UTF-8" standalone="no"?>
<!-- Created with Inkscape (http://www.inkscape.org/) -->

<svg
   xmlns:dc="http://purl.org/dc/elements/1.1/"
   xmlns:cc="http://creativecommons.org/ns#"
   xmlns:rdf="http://www.w3.org/1999/02/22-rdf-syntax-ns#"
   xmlns:svg="http://www.w3.org/2000/svg"
   xmlns="http://www.w3.org/2000/svg"
   version="1.1"
   width="1015"
   height="235"
   id="svg3748">
  <defs
     id="defs3750">
    <clipPath
       id="clipPath3025">
      <path
         d="m 0,535.209 272.394,0 0,60.066 -272.394,0 0,-60.066 z"
         id="path3027" />
    </clipPath>
  </defs>
  <metadata
     id="metadata3753">
    <rdf:RDF>
      <cc:Work
         rdf:about="">
        <dc:format>image/svg+xml</dc:format>
        <dc:type
           rdf:resource="http://purl.org/dc/dcmitype/StillImage" />
        <dc:title></dc:title>
      </cc:Work>
    </rdf:RDF>
  </metadata>
  <g
     transform="translate(0,-533)"
     id="layer1">
    <g
       transform="matrix(3.3275,0,0,-3.3275,162.80448,2330.8444)"
       id="g3381">
      <g
         transform="matrix(1.111,0,0,1.111,-47.574666,-123.44816)"
         id="g4119">
        <path
           d="m 0,575.581 19.695,0 0,19.695 -19.695,0 0,-19.695 z"
           id="path3009"
           style="fill:#000000;fill-opacity:1;fill-rule:nonzero;stroke:none" />
        <path
           d="m 59.081,575.581 19.694,0 0,19.695 -19.694,0 0,-19.695 z"
           id="path3011"
           style="fill:#e85412;fill-opacity:1;fill-rule:nonzero;stroke:none" />
        <path
           d="m 78.775,575.581 19.694,0 0,19.695 -19.694,0 0,-19.695 z"
           id="path3013"
           style="fill:#ffd300;fill-opacity:1;fill-rule:nonzero;stroke:none" />
        <path
           d="m 39.387,575.581 19.694,0 0,19.695 -19.694,0 0,-19.695 z"
           id="path3015"
           style="fill:#5bac26;fill-opacity:1;fill-rule:nonzero;stroke:none" />
        <path
           d="m 98.468,575.581 19.696,0 0,19.695 -19.696,0 0,-19.695 z"
           id="path3017"
           style="fill:#495da3;fill-opacity:1;fill-rule:nonzero;stroke:none" />
        <path
           d="m 19.693,575.581 19.695,0 0,19.695 -19.695,0 0,-19.695 z"
           id="path3019"
           style="fill:#f39900;fill-opacity:1;fill-rule:nonzero;stroke:none" />
        <g
           id="g3021">
          <g
             clip-path="url(#clipPath3025)"
             id="g3023">
            <g
               transform="translate(119.727,565.7095)"
               id="g3029">
              <path
                 d="m 0,0 0,0.159 0.778,0 C 0.786,-0.325 1.127,-0.62 1.61,-0.62 c 0.439,0 0.848,0.212 0.848,0.711 0,0.559 -0.583,0.779 -1.165,1.051 -0.582,0.28 -1.172,0.605 -1.172,1.369 0,0.885 0.733,1.422 1.58,1.422 0.703,0 1.482,-0.492 1.482,-1.263 l 0,-0.099 -0.779,0 c 0.031,0.431 -0.31,0.651 -0.718,0.651 -0.408,0 -0.787,-0.159 -0.787,-0.643 0,-0.37 0.295,-0.567 0.59,-0.703 L 1.943,1.664 C 2.639,1.331 3.236,0.968 3.236,0.099 c 0,-0.9 -0.778,-1.43 -1.626,-1.43 C 0.839,-1.331 0,-0.847 0,0"
                 id="path3031"
                 style="fill:#000000;fill-opacity:1;fill-rule:nonzero;stroke:none" />
            </g>
            <g
               transform="translate(127.614,568.4171)"
               id="g3033">
              <path
                 d="m 0,0 c -0.023,0.31 -0.31,0.514 -0.635,0.514 -0.825,0 -0.953,-1.293 -0.953,-1.898 0,-0.613 0.113,-1.944 0.953,-1.944 0.325,0 0.612,0.227 0.635,0.56 l 0.779,0 c 0,-0.764 -0.658,-1.271 -1.384,-1.271 -1.384,0 -1.762,1.498 -1.762,2.617 0,1.18 0.378,2.647 1.762,2.647 C 0.121,1.225 0.779,0.733 0.779,0 L 0,0 z"
                 id="path3035"
                 style="fill:#000000;fill-opacity:1;fill-rule:nonzero;stroke:none" />
            </g>
            <g
               transform="translate(131.38,566.7534)"
               id="g3037">
              <path
                 d="m 0,0 0,-2.307 -0.779,0 0,5.128 0.779,0 0,-2.11 1.709,0 0,2.11 0.779,0 0,-5.128 -0.779,0 L 1.709,0 0,0 z"
                 id="path3039"
                 style="fill:#000000;fill-opacity:1;fill-rule:nonzero;stroke:none" />
            </g>
            <g
               transform="translate(137.967,567.6079)"
               id="g3041">
              <path
                 d="m 0,0 0.521,-1.823 0.016,0 c 0.143,1.142 0.241,2.368 0.241,3.366 l 0,0.423 0.779,0 0,-0.423 c 0,-0.515 -0.06,-1.853 -0.166,-2.458 l -0.385,-2.246 -0.848,0 -0.438,1.785 -0.015,0 -0.446,-1.785 -0.848,0 -0.385,2.246 C -2.08,-0.31 -2.141,1.028 -2.141,1.543 l 0,0.423 0.779,0 0,-0.423 c 0,-0.998 0.099,-2.224 0.242,-3.366 l 0.015,0 L -0.583,0 0,0 z"
                 id="path3043"
                 style="fill:#000000;fill-opacity:1;fill-rule:nonzero;stroke:none" />
            </g>
            <g
               transform="translate(142.443,567.4796)"
               id="g3045">
              <path
                 d="m 0,0 1.996,0 0,-0.711 -1.996,0 0,-1.611 2.382,0 0,-0.711 -3.161,0 0,5.128 3.07,0 0,-0.711 L 0,1.384 0,0 z"
                 id="path3047"
                 style="fill:#000000;fill-opacity:1;fill-rule:nonzero;stroke:none" />
            </g>
            <g
               transform="translate(148.954,565.1577)"
               id="g3049">
              <path
                 d="m 0,0 0.923,0 0,-0.711 -2.624,0 0,0.711 0.923,0 0,3.706 -0.772,0 0,0.711 2.314,0 0,-0.711 L 0,3.706 0,0 z"
                 id="path3051"
                 style="fill:#000000;fill-opacity:1;fill-rule:nonzero;stroke:none" />
            </g>
            <g
               transform="translate(155.556,565.1577)"
               id="g3053">
              <path
                 d="m 0,0 0,-0.711 -3.093,0 0,0.537 1.997,3.88 -1.929,0 0,0.711 2.776,0 0,-0.598 L -2.193,0 0,0 z"
                 id="path3055"
                 style="fill:#000000;fill-opacity:1;fill-rule:nonzero;stroke:none" />
            </g>
            <g
               transform="translate(158.777,567.4796)"
               id="g3057">
              <path
                 d="m 0,0 1.996,0 0,-0.711 -1.996,0 0,-1.611 2.382,0 0,-0.711 -3.16,0 0,5.128 3.069,0 0,-0.711 L 0,1.384 0,0 z"
                 id="path3059"
                 style="fill:#000000;fill-opacity:1;fill-rule:nonzero;stroke:none" />
            </g>
            <g
               transform="translate(164.722,567.2827)"
               id="g3061">
              <path
                 d="m 0,0 c 0.627,0 1.012,0.151 1.012,0.824 0,0.673 -0.468,0.757 -1.02,0.757 l -0.568,0 L -0.576,0 0,0 z m -0.576,-2.836 -0.779,0 0,5.128 1.49,0 c 0.938,0 1.657,-0.485 1.657,-1.498 0,-0.643 -0.356,-1.225 -1.022,-1.346 l 1.339,-2.284 -0.893,0 -1.171,2.125 -0.621,0 0,-2.125 z"
                 id="path3063"
                 style="fill:#000000;fill-opacity:1;fill-rule:nonzero;stroke:none" />
            </g>
            <g
               transform="translate(176.126,569.5742)"
               id="g3065">
              <path
                 d="m 0,0 0,-3.713 c 0,-1.006 -0.484,-1.483 -1.323,-1.483 -0.81,0 -1.324,0.507 -1.324,1.294 l 0,0.438 0.779,0 0,-0.476 c 0,-0.34 0.181,-0.545 0.537,-0.545 0.59,0 0.552,0.469 0.552,0.915 L -0.779,0 0,0 z"
                 id="path3067"
                 style="fill:#000000;fill-opacity:1;fill-rule:nonzero;stroke:none" />
            </g>
            <g
               transform="translate(179.528,569.5742)"
               id="g3069">
              <path
                 d="m 0,0 0,-3.358 c 0,-0.718 0.175,-1.127 0.953,-1.127 0.78,0 0.954,0.409 0.954,1.127 l 0,3.358 0.778,0 0,-3.411 c 0,-1.111 -0.536,-1.785 -1.732,-1.785 -1.202,0 -1.731,0.674 -1.731,1.785 L -0.778,0 0,0 z"
                 id="path3071"
                 style="fill:#000000;fill-opacity:1;fill-rule:nonzero;stroke:none" />
            </g>
            <g
               transform="translate(186.834,566.4811)"
               id="g3073">
              <path
                 d="m 0,0 0,-1.271 c -0.197,-0.075 -0.401,-0.121 -0.628,-0.121 -1.134,0 -1.263,1.097 -1.263,1.997 0,0.968 0.182,1.845 1.271,1.845 0.34,0 0.544,-0.083 0.62,-0.386 l 0.778,0 0,0.061 c 0,0.522 -0.65,1.036 -1.398,1.036 -1.596,0 -2.05,-1.248 -2.05,-2.624 0,-1.316 0.424,-2.64 1.974,-2.64 0.492,0 1.021,0.121 1.474,0.311 l 0,2.503 -1.837,0 L -1.059,0 0,0 z"
                 id="path3075"
                 style="fill:#000000;fill-opacity:1;fill-rule:nonzero;stroke:none" />
            </g>
            <g
               transform="translate(190.69,567.4796)"
               id="g3077">
              <path
                 d="m 0,0 1.997,0 0,-0.711 -1.997,0 0,-1.611 2.382,0 0,-0.711 -3.161,0 0,5.128 3.07,0 0,-0.711 L 0,1.384 0,0 z"
                 id="path3079"
                 style="fill:#000000;fill-opacity:1;fill-rule:nonzero;stroke:none" />
            </g>
            <g
               transform="translate(197.807,569.5742)"
               id="g3081">
              <path
                 d="m 0,0 0.711,0 0,-5.127 -0.848,0 -1.83,3.879 -0.015,0 0,-3.879 -0.711,0 0,5.127 0.907,0 1.77,-3.721 0.016,0 L 0,0 z"
                 id="path3083"
                 style="fill:#000000;fill-opacity:1;fill-rule:nonzero;stroke:none" />
            </g>
            <g
               transform="translate(201.564,565.1577)"
               id="g3085">
              <path
                 d="M 0,0 C 1.029,-0.023 1.612,0.794 1.612,1.762 1.612,2.685 0.984,3.66 0,3.706 L 0,0 z m -0.778,4.417 0.484,0 c 1.528,0 2.684,-1.12 2.684,-2.67 0,-1.558 -1.089,-2.458 -2.586,-2.458 l -0.582,0 0,5.128 z"
                 id="path3087"
                 style="fill:#000000;fill-opacity:1;fill-rule:nonzero;stroke:none" />
            </g>
            <g
               transform="translate(211.328,567.4796)"
               id="g3089">
              <path
                 d="m 0,0 1.543,0 0,-0.711 -1.543,0 0,-2.322 -0.778,0 0,5.128 2.691,0 0,-0.711 L 0,1.384 0,0 z"
                 id="path3091"
                 style="fill:#000000;fill-opacity:1;fill-rule:nonzero;stroke:none" />
            </g>
            <g
               transform="translate(216.047,566.9801)"
               id="g3093">
              <path
                 d="m 0,0 c 0,-0.643 0.143,-1.891 1.036,-1.891 0.885,0 1.036,1.248 1.036,1.891 0,0.658 -0.136,1.951 -1.036,1.951 C 0.129,1.951 0,0.658 0,0 m 2.851,0.038 c 0,-1.127 -0.506,-2.64 -1.815,-2.64 -1.309,0 -1.814,1.513 -1.814,2.64 0,1.036 0.513,2.624 1.814,2.624 1.301,0 1.815,-1.588 1.815,-2.624"
                 id="path3095"
                 style="fill:#000000;fill-opacity:1;fill-rule:nonzero;stroke:none" />
            </g>
            <g
               transform="translate(222.347,567.2827)"
               id="g3097">
              <path
                 d="m 0,0 c 0.627,0 1.012,0.151 1.012,0.824 0,0.673 -0.468,0.757 -1.02,0.757 l -0.568,0 L -0.576,0 0,0 z m -0.576,-2.836 -0.778,0 0,5.128 1.489,0 c 0.938,0 1.657,-0.485 1.657,-1.498 0,-0.643 -0.356,-1.225 -1.021,-1.346 l 1.338,-2.284 -0.893,0 -1.171,2.125 -0.621,0 0,-2.125 z"
                 id="path3099"
                 style="fill:#000000;fill-opacity:1;fill-rule:nonzero;stroke:none" />
            </g>
            <g
               transform="translate(227.965,564.3784)"
               id="g3101">
              <path
                 d="m 0,0 c 0.848,0 1.626,0.53 1.626,1.43 0,0.869 -0.598,1.232 -1.293,1.565 l -0.454,0.212 c -0.295,0.136 -0.59,0.333 -0.59,0.703 0,0.484 0.378,0.643 0.787,0.643 0.408,0 0.748,-0.22 0.718,-0.651 l 0.779,0 0,0.099 c 0,0.771 -0.779,1.263 -1.482,1.263 -0.847,0 -1.58,-0.537 -1.58,-1.422 0,-0.764 0.589,-1.089 1.171,-1.369 C 0.264,2.201 0.848,1.982 0.848,1.422 0.848,0.923 0.438,0.711 0,0.711 c -0.484,0 -0.824,0.295 -0.832,0.779 l -0.779,0 0,-0.159 C -1.611,0.484 -0.772,0 0,0"
                 id="path3103"
                 style="fill:#000000;fill-opacity:1;fill-rule:nonzero;stroke:none" />
            </g>
            <g
               transform="translate(234.241,568.4171)"
               id="g3105">
              <path
                 d="m 0,0 c -0.022,0.31 -0.309,0.514 -0.635,0.514 -0.824,0 -0.953,-1.293 -0.953,-1.898 0,-0.613 0.114,-1.944 0.953,-1.944 0.326,0 0.613,0.227 0.635,0.56 l 0.78,0 c 0,-0.764 -0.659,-1.271 -1.384,-1.271 -1.384,0 -1.762,1.498 -1.762,2.617 0,1.18 0.378,2.647 1.762,2.647 C 0.121,1.225 0.78,0.733 0.78,0 L 0,0 z"
                 id="path3107"
                 style="fill:#000000;fill-opacity:1;fill-rule:nonzero;stroke:none" />
            </g>
            <g
               transform="translate(238.008,566.7534)"
               id="g3109">
              <path
                 d="m 0,0 0,-2.307 -0.779,0 0,5.128 0.779,0 0,-2.11 1.709,0 0,2.11 0.778,0 0,-5.128 -0.778,0 L 1.709,0 0,0 z"
                 id="path3111"
                 style="fill:#000000;fill-opacity:1;fill-rule:nonzero;stroke:none" />
            </g>
            <g
               transform="translate(244.692,564.4468)"
               id="g3113">
              <path
                 d="m 0,0 -0.779,0 0,4.417 -1.384,0 0,0.71 3.547,0 0,-0.71 L 0,4.417 0,0 z"
                 id="path3115"
                 style="fill:#000000;fill-opacity:1;fill-rule:nonzero;stroke:none" />
            </g>
            <g
               transform="translate(123.273,555.4337)"
               id="g3117">
              <path
                 d="m 0,0 0,-0.711 -3.403,0 0,5.127 0.779,0 L -2.624,0 0,0 z"
                 id="path3119"
                 style="fill:#000000;fill-opacity:1;fill-rule:nonzero;stroke:none" />
            </g>
            <g
               transform="translate(126.797,559.1329)"
               id="g3121">
              <path
                 d="m 0,0 -0.015,0 -0.559,-2.225 1.126,0 L 0,0 z m -0.756,-2.935 -0.363,-1.475 -0.786,0 1.399,5.127 0.99,0 1.399,-5.127 -0.786,0 -0.371,1.475 -1.482,0 z"
                 id="path3123"
                 style="fill:#000000;fill-opacity:1;fill-rule:nonzero;stroke:none" />
            </g>
            <g
               transform="translate(136.916,554.6543)"
               id="g3125">
              <path
                 d="m 0,0 c 0.847,0 1.626,0.529 1.626,1.43 0,0.869 -0.598,1.232 -1.293,1.566 l -0.454,0.211 c -0.295,0.137 -0.59,0.332 -0.59,0.703 0,0.485 0.378,0.643 0.787,0.643 0.408,0 0.748,-0.219 0.718,-0.651 l 0.779,0 0,0.1 c 0,0.771 -0.779,1.262 -1.482,1.262 -0.847,0 -1.581,-0.537 -1.581,-1.422 0,-0.764 0.59,-1.088 1.173,-1.367 C 0.265,2.201 0.847,1.982 0.847,1.422 0.847,0.924 0.438,0.711 0,0.711 c -0.484,0 -0.824,0.295 -0.832,0.779 l -0.779,0 0,-0.158 C -1.611,0.484 -0.771,0 0,0"
                 id="path3127"
                 style="fill:#000000;fill-opacity:1;fill-rule:nonzero;stroke:none" />
            </g>
            <g
               transform="translate(143.192,558.6935)"
               id="g3129">
              <path
                 d="m 0,0 c -0.022,0.31 -0.309,0.514 -0.634,0.514 -0.825,0 -0.954,-1.293 -0.954,-1.899 0,-0.611 0.114,-1.943 0.954,-1.943 0.325,0 0.612,0.228 0.634,0.56 l 0.78,0 c 0,-0.763 -0.659,-1.271 -1.384,-1.271 -1.384,0 -1.763,1.498 -1.763,2.617 0,1.18 0.379,2.647 1.763,2.647 C 0.121,1.225 0.78,0.734 0.78,0 L 0,0 z"
                 id="path3131"
                 style="fill:#000000;fill-opacity:1;fill-rule:nonzero;stroke:none" />
            </g>
            <g
               transform="translate(148.198,555.4337)"
               id="g3133">
              <path
                 d="m 0,0 0.923,0 0,-0.711 -2.624,0 0,0.711 0.923,0 0,3.705 -0.772,0 0,0.711 2.315,0 0,-0.711 L 0,3.705 0,0 z"
                 id="path3135"
                 style="fill:#000000;fill-opacity:1;fill-rule:nonzero;stroke:none" />
            </g>
            <g
               transform="translate(152.577,557.756)"
               id="g3137">
              <path
                 d="m 0,0 1.996,0 0,-0.711 -1.996,0 0,-1.611 2.382,0 0,-0.711 -3.161,0 0,5.127 3.07,0 0,-0.711 L 0,1.383 0,0 z"
                 id="path3139"
                 style="fill:#000000;fill-opacity:1;fill-rule:nonzero;stroke:none" />
            </g>
            <g
               transform="translate(159.693,559.8501)"
               id="g3141">
              <path
                 d="m 0,0 0.711,0 0,-5.127 -0.847,0 -1.83,3.88 -0.015,0 0,-3.88 -0.711,0 0,5.127 0.907,0 1.77,-3.721 0.015,0 L 0,0 z"
                 id="path3143"
                 style="fill:#000000;fill-opacity:1;fill-rule:nonzero;stroke:none" />
            </g>
            <g
               transform="translate(164.972,558.6935)"
               id="g3145">
              <path
                 d="m 0,0 c -0.023,0.31 -0.311,0.514 -0.636,0.514 -0.824,0 -0.952,-1.293 -0.952,-1.899 0,-0.611 0.113,-1.943 0.952,-1.943 0.325,0 0.613,0.228 0.636,0.56 l 0.778,0 c 0,-0.763 -0.657,-1.271 -1.384,-1.271 -1.384,0 -1.762,1.498 -1.762,2.617 0,1.18 0.378,2.647 1.762,2.647 C 0.121,1.225 0.778,0.734 0.778,0 L 0,0 z"
                 id="path3147"
                 style="fill:#000000;fill-opacity:1;fill-rule:nonzero;stroke:none" />
            </g>
            <g
               transform="translate(168.911,557.756)"
               id="g3149">
              <path
                 d="m 0,0 1.997,0 0,-0.711 -1.997,0 0,-1.611 2.382,0 0,-0.711 -3.16,0 0,5.127 3.07,0 0,-0.711 L 0,1.383 0,0 z"
                 id="path3151"
                 style="fill:#000000;fill-opacity:1;fill-rule:nonzero;stroke:none" />
            </g>
            <g
               transform="translate(179.732,559.1329)"
               id="g3153">
              <path
                 d="m 0,0 -0.015,0 -0.56,-2.225 1.127,0 L 0,0 z m -0.756,-2.935 -0.364,-1.475 -0.786,0 1.4,5.127 0.99,0 1.399,-5.127 -0.787,0 -0.37,1.475 -1.482,0 z"
                 id="path3155"
                 style="fill:#000000;fill-opacity:1;fill-rule:nonzero;stroke:none" />
            </g>
            <g
               transform="translate(185.32,557.5509)"
               id="g3157">
              <path
                 d="m 0,0 c 0.537,0 0.998,0.168 0.998,0.787 0,0.674 -0.408,0.801 -0.99,0.801 l -0.923,0 L -0.915,0 0,0 z m -1.694,2.299 1.732,0 c 1.021,0 1.74,-0.461 1.74,-1.528 0,-1.066 -0.84,-1.482 -1.792,-1.482 l -0.901,0 0,-2.117 -0.779,0 0,5.127 z"
                 id="path3159"
                 style="fill:#000000;fill-opacity:1;fill-rule:nonzero;stroke:none" />
            </g>
            <g
               transform="translate(190.765,557.5509)"
               id="g3161">
              <path
                 d="m 0,0 c 0.537,0 0.999,0.168 0.999,0.787 0,0.674 -0.41,0.801 -0.992,0.801 l -0.922,0 L -0.915,0 0,0 z m -1.694,2.299 1.732,0 c 1.021,0 1.739,-0.461 1.739,-1.528 0,-1.066 -0.839,-1.482 -1.792,-1.482 l -0.9,0 0,-2.117 -0.779,0 0,5.127 z"
                 id="path3163"
                 style="fill:#000000;fill-opacity:1;fill-rule:nonzero;stroke:none" />
            </g>
            <g
               transform="translate(195.378,557.756)"
               id="g3165">
              <path
                 d="m 0,0 1.996,0 0,-0.711 -1.996,0 0,-1.611 2.382,0 0,-0.711 -3.161,0 0,5.127 3.07,0 0,-0.711 L 0,1.383 0,0 z"
                 id="path3167"
                 style="fill:#000000;fill-opacity:1;fill-rule:nonzero;stroke:none" />
            </g>
            <g
               transform="translate(203.432,555.4337)"
               id="g3169">
              <path
                 d="m 0,0 0,-0.711 -3.404,0 0,5.127 0.78,0 L -2.624,0 0,0 z"
                 id="path3171"
                 style="fill:#000000;fill-opacity:1;fill-rule:nonzero;stroke:none" />
            </g>
            <g
               transform="translate(208.876,555.4337)"
               id="g3173">
              <path
                 d="m 0,0 0,-0.711 -3.402,0 0,5.127 0.778,0 L -2.624,0 0,0 z"
                 id="path3175"
                 style="fill:#000000;fill-opacity:1;fill-rule:nonzero;stroke:none" />
            </g>
            <g
               transform="translate(211.712,557.756)"
               id="g3177">
              <path
                 d="m 0,0 1.997,0 0,-0.711 -1.997,0 0,-1.611 2.382,0 0,-0.711 -3.16,0 0,5.127 3.07,0 0,-0.711 L 0,1.383 0,0 z"
                 id="path3179"
                 style="fill:#000000;fill-opacity:1;fill-rule:nonzero;stroke:none" />
            </g>
            <g
               transform="translate(224.455,555.4337)"
               id="g3181">
              <path
                 d="m 0,0 0,-0.711 -3.402,0 0,5.127 0.778,0 L -2.624,0 0,0 z"
                 id="path3183"
                 style="fill:#000000;fill-opacity:1;fill-rule:nonzero;stroke:none" />
            </g>
            <g
               transform="translate(227.291,557.756)"
               id="g3185">
              <path
                 d="m 0,0 1.997,0 0,-0.711 -1.997,0 0,-1.611 2.382,0 0,-0.711 -3.16,0 0,5.127 3.07,0 0,-0.711 L 0,1.383 0,0 z"
                 id="path3187"
                 style="fill:#000000;fill-opacity:1;fill-rule:nonzero;stroke:none" />
            </g>
            <g
               transform="translate(231.798,555.9863)"
               id="g3189">
              <path
                 d="m 0,0 0,0.158 0.779,0 c 0.008,-0.484 0.348,-0.779 0.832,-0.779 0.439,0 0.847,0.213 0.847,0.711 0,0.56 -0.582,0.779 -1.164,1.053 -0.583,0.279 -1.173,0.603 -1.173,1.367 0,0.885 0.733,1.422 1.581,1.422 0.703,0 1.482,-0.491 1.482,-1.262 l 0,-0.1 -0.779,0 C 2.435,3.002 2.095,3.221 1.686,3.221 1.278,3.221 0.9,3.063 0.9,2.578 0.9,2.207 1.195,2.012 1.49,1.875 L 1.944,1.664 C 2.64,1.33 3.237,0.967 3.237,0.098 3.237,-0.803 2.458,-1.332 1.611,-1.332 0.84,-1.332 0,-0.848 0,0"
                 id="path3191"
                 style="fill:#000000;fill-opacity:1;fill-rule:nonzero;stroke:none" />
            </g>
            <g
               transform="translate(243.86,559.8501)"
               id="g3193">
              <path
                 d="m 0,0 0,-3.569 c 0,-0.447 0.038,-0.916 -0.551,-0.916 -0.356,0 -0.538,0.205 -0.538,0.545 l 0,0.477 -0.778,0 0,-0.438 c 0,-0.787 0.514,-1.295 1.323,-1.295 0.839,0 1.324,0.477 1.324,1.483 L 0.78,0 0,0 z"
                 id="path3195"
                 style="fill:#000000;fill-opacity:1;fill-rule:nonzero;stroke:none" />
            </g>
            <g
               transform="translate(248.314,557.756)"
               id="g3197">
              <path
                 d="m 0,0 1.998,0 0,-0.711 -1.998,0 0,-1.611 2.382,0 0,-0.711 -3.16,0 0,5.127 3.07,0 0,-0.711 L 0,1.383 0,0 z"
                 id="path3199"
                 style="fill:#000000;fill-opacity:1;fill-rule:nonzero;stroke:none" />
            </g>
            <g
               transform="translate(253.487,559.8501)"
               id="g3201">
              <path
                 d="m 0,0 0,-3.358 c 0,-0.719 0.174,-1.127 0.953,-1.127 0.779,0 0.953,0.408 0.953,1.127 l 0,3.358 0.779,0 0,-3.411 c 0,-1.111 -0.537,-1.785 -1.732,-1.785 -1.203,0 -1.732,0.674 -1.732,1.785 L -0.779,0 0,0 z"
                 id="path3203"
                 style="fill:#000000;fill-opacity:1;fill-rule:nonzero;stroke:none" />
            </g>
            <g
               transform="translate(260.875,559.8501)"
               id="g3205">
              <path
                 d="m 0,0 0.711,0 0,-5.127 -0.847,0 -1.83,3.88 -0.014,0 0,-3.88 -0.711,0 0,5.127 0.907,0 1.769,-3.721 0.015,0 L 0,0 z"
                 id="path3207"
                 style="fill:#000000;fill-opacity:1;fill-rule:nonzero;stroke:none" />
            </g>
            <g
               transform="translate(264.648,557.756)"
               id="g3209">
              <path
                 d="m 0,0 1.998,0 0,-0.711 -1.998,0 0,-1.611 2.383,0 0,-0.711 -3.161,0 0,5.127 3.07,0 0,-0.711 L 0,1.383 0,0 z"
                 id="path3211"
                 style="fill:#000000;fill-opacity:1;fill-rule:nonzero;stroke:none" />
            </g>
            <g
               transform="translate(269.157,555.9855)"
               id="g3213">
              <path
                 d="m 0,0 0,0.159 0.779,0 c 0.007,-0.484 0.347,-0.779 0.832,-0.779 0.438,0 0.846,0.212 0.846,0.711 C 2.457,0.65 1.875,0.87 1.293,1.142 0.71,1.422 0.12,1.747 0.12,2.511 c 0,0.885 0.735,1.422 1.581,1.422 0.704,0 1.483,-0.492 1.483,-1.263 l 0,-0.099 -0.779,0 C 2.435,3.003 2.095,3.222 1.686,3.222 1.278,3.222 0.9,3.063 0.9,2.579 0.9,2.208 1.195,2.012 1.489,1.876 L 1.944,1.664 C 2.639,1.331 3.237,0.968 3.237,0.099 c 0,-0.901 -0.78,-1.43 -1.626,-1.43 C 0.839,-1.331 0,-0.847 0,0"
                 id="path3215"
                 style="fill:#000000;fill-opacity:1;fill-rule:nonzero;stroke:none" />
            </g>
            <g
               transform="translate(119.727,546.2637)"
               id="g3217">
              <path
                 d="m 0,0 0,0.158 0.778,0 c 0.008,-0.484 0.349,-0.779 0.832,-0.779 0.439,0 0.848,0.213 0.848,0.711 0,0.56 -0.583,0.779 -1.165,1.053 -0.582,0.279 -1.172,0.603 -1.172,1.367 0,0.885 0.733,1.422 1.58,1.422 0.703,0 1.482,-0.491 1.482,-1.262 l 0,-0.1 -0.779,0 C 2.435,3.002 2.094,3.221 1.686,3.221 1.278,3.221 0.899,3.063 0.899,2.578 0.899,2.207 1.194,2.012 1.489,1.875 L 1.943,1.664 C 2.639,1.33 3.236,0.967 3.236,0.098 3.236,-0.803 2.458,-1.332 1.61,-1.332 0.839,-1.332 0,-0.848 0,0"
                 id="path3219"
                 style="fill:#000000;fill-opacity:1;fill-rule:nonzero;stroke:none" />
            </g>
            <g
               transform="translate(127.614,548.9707)"
               id="g3221">
              <path
                 d="m 0,0 c -0.023,0.311 -0.31,0.514 -0.635,0.514 -0.825,0 -0.953,-1.293 -0.953,-1.899 0,-0.611 0.113,-1.943 0.953,-1.943 0.325,0 0.612,0.228 0.635,0.56 l 0.779,0 c 0,-0.763 -0.658,-1.271 -1.384,-1.271 -1.384,0 -1.762,1.498 -1.762,2.617 0,1.18 0.378,2.647 1.762,2.647 C 0.121,1.225 0.779,0.734 0.779,0 L 0,0 z"
                 id="path3223"
                 style="fill:#000000;fill-opacity:1;fill-rule:nonzero;stroke:none" />
            </g>
            <g
               transform="translate(132.62,545.7109)"
               id="g3225">
              <path
                 d="m 0,0 0.922,0 0,-0.711 -2.624,0 0,0.711 0.923,0 0,3.705 -0.771,0 0,0.711 2.314,0 0,-0.711 L 0,3.705 0,0 z"
                 id="path3227"
                 style="fill:#000000;fill-opacity:1;fill-rule:nonzero;stroke:none" />
            </g>
            <g
               transform="translate(136.999,548.0332)"
               id="g3229">
              <path
                 d="m 0,0 1.996,0 0,-0.711 -1.996,0 0,-1.611 2.382,0 0,-0.711 -3.161,0 0,5.127 3.07,0 0,-0.711 L 0,1.383 0,0 z"
                 id="path3231"
                 style="fill:#000000;fill-opacity:1;fill-rule:nonzero;stroke:none" />
            </g>
            <g
               transform="translate(144.114,550.1271)"
               id="g3233">
              <path
                 d="m 0,0 0.711,0 0,-5.127 -0.846,0 -1.831,3.881 -0.015,0 0,-3.881 -0.711,0 0,5.127 0.908,0 1.77,-3.721 0.014,0 L 0,0 z"
                 id="path3235"
                 style="fill:#000000;fill-opacity:1;fill-rule:nonzero;stroke:none" />
            </g>
            <g
               transform="translate(150.111,545.7109)"
               id="g3237">
              <path
                 d="m 0,0 0,-0.711 -3.092,0 0,0.537 1.996,3.879 -1.929,0 0,0.711 2.775,0 0,-0.596 L -2.193,0 0,0 z"
                 id="path3239"
                 style="fill:#000000;fill-opacity:1;fill-rule:nonzero;stroke:none" />
            </g>
            <g
               transform="translate(154.021,549.4103)"
               id="g3241">
              <path
                 d="m 0,0 -0.015,0 -0.56,-2.225 1.127,0 L 0,0 z m -0.756,-2.936 -0.364,-1.474 -0.786,0 1.4,5.127 0.99,0 1.399,-5.127 -0.787,0 -0.37,1.474 -1.482,0 z"
                 id="path3243"
                 style="fill:#000000;fill-opacity:1;fill-rule:nonzero;stroke:none" />
            </g>
            <g
               transform="translate(163.468,548.0332)"
               id="g3245">
              <path
                 d="m 0,0 1.996,0 0,-0.711 -1.996,0 0,-1.611 2.382,0 0,-0.711 -3.162,0 0,5.127 3.071,0 0,-0.711 L 0,1.383 0,0 z"
                 id="path3247"
                 style="fill:#000000;fill-opacity:1;fill-rule:nonzero;stroke:none" />
            </g>
            <g
               transform="translate(174.13,547.0353)"
               id="g3249">
              <path
                 d="m 0,0 0,0.711 1.838,0 0,-2.504 c -0.454,-0.19 -0.984,-0.311 -1.475,-0.311 -1.551,0 -1.974,1.325 -1.974,2.641 0,1.375 0.454,2.623 2.049,2.623 0.749,0 1.4,-0.514 1.4,-1.035 l 0,-0.061 -0.78,0 c -0.075,0.303 -0.28,0.385 -0.62,0.385 -1.089,0 -1.27,-0.877 -1.27,-1.844 0,-0.9 0.129,-1.998 1.263,-1.998 0.227,0 0.431,0.047 0.627,0.122 L 1.058,0 0,0 z"
                 id="path3251"
                 style="fill:#000000;fill-opacity:1;fill-rule:nonzero;stroke:none" />
            </g>
            <g
               transform="translate(180.111,549.416)"
               id="g3253">
              <path
                 d="m 0,0 0.764,0 0,0.711 -2.313,0 0,-0.711 0.77,0 0,-3.705 -0.922,0 0,-0.711 2.624,0 0,0.711 L 0,-3.705 0,0 z"
                 id="path3255"
                 style="fill:#000000;fill-opacity:1;fill-rule:nonzero;stroke:none" />
            </g>
            <g
               transform="translate(184.135,547.5333)"
               id="g3257">
              <path
                 d="m 0,0 c 0,-0.643 0.143,-1.891 1.036,-1.891 0.885,0 1.035,1.248 1.035,1.891 0,0.658 -0.136,1.951 -1.035,1.951 C 0.128,1.951 0,0.658 0,0 m 2.85,0.039 c 0,-1.127 -0.506,-2.641 -1.814,-2.641 -1.309,0 -1.816,1.514 -1.816,2.641 0,1.035 0.515,2.623 1.816,2.623 1.3,0 1.814,-1.588 1.814,-2.623"
                 id="path3259"
                 style="fill:#000000;fill-opacity:1;fill-rule:nonzero;stroke:none" />
            </g>
            <g
               transform="translate(191.765,550.1271)"
               id="g3261">
              <path
                 d="m 0,0 0.779,0 -1.399,-5.127 -1.082,0 -1.383,5.127 0.778,0 1.149,-4.356 0.016,0 L 0,0 z"
                 id="path3263"
                 style="fill:#000000;fill-opacity:1;fill-rule:nonzero;stroke:none" />
            </g>
            <g
               transform="translate(195.379,548.0332)"
               id="g3265">
              <path
                 d="m 0,0 1.997,0 0,-0.711 -1.997,0 0,-1.611 2.383,0 0,-0.711 -3.161,0 0,5.127 3.07,0 0,-0.711 L 0,1.383 0,0 z"
                 id="path3267"
                 style="fill:#000000;fill-opacity:1;fill-rule:nonzero;stroke:none" />
            </g>
            <g
               transform="translate(202.495,550.1271)"
               id="g3269">
              <path
                 d="m 0,0 0.711,0 0,-5.127 -0.847,0 -1.83,3.881 -0.015,0 0,-3.881 -0.711,0 0,5.127 0.908,0 1.769,-3.721 0.015,0 L 0,0 z"
                 id="path3271"
                 style="fill:#000000;fill-opacity:1;fill-rule:nonzero;stroke:none" />
            </g>
            <g
               transform="translate(207.335,545.0001)"
               id="g3273">
              <path
                 d="m 0,0 -0.779,0 0,4.416 -1.384,0 0,0.711 3.547,0 0,-0.711 L 0,4.416 0,0 z"
                 id="path3275"
                 style="fill:#000000;fill-opacity:1;fill-rule:nonzero;stroke:none" />
            </g>
            <g
               transform="translate(211.441,550.1271)"
               id="g3277">
              <path
                 d="m 0,0 0,-3.358 c 0,-0.718 0.174,-1.126 0.954,-1.126 0.778,0 0.952,0.408 0.952,1.126 l 0,3.358 0.779,0 0,-3.41 c 0,-1.111 -0.537,-1.785 -1.731,-1.785 -1.204,0 -1.733,0.674 -1.733,1.785 L -0.779,0 0,0 z"
                 id="path3279"
                 style="fill:#000000;fill-opacity:1;fill-rule:nonzero;stroke:none" />
            </g>
            <g
               transform="translate(121.337,535.209)"
               id="g3281">
              <path
                 d="m 0,0 c 0.848,0 1.626,0.529 1.626,1.43 0,0.869 -0.597,1.232 -1.293,1.564 l -0.454,0.213 c -0.295,0.135 -0.59,0.332 -0.59,0.703 0,0.483 0.379,0.643 0.787,0.643 0.408,0 0.749,-0.219 0.718,-0.651 l 0.779,0 0,0.098 c 0,0.772 -0.779,1.264 -1.482,1.264 -0.847,0 -1.58,-0.537 -1.58,-1.422 0,-0.764 0.59,-1.09 1.172,-1.369 C 0.265,2.201 0.848,1.981 0.848,1.422 0.848,0.922 0.439,0.711 0,0.711 c -0.483,0 -0.824,0.295 -0.832,0.779 l -0.778,0 0,-0.16 C -1.61,0.484 -0.771,0 0,0"
                 id="path3283"
                 style="fill:#000000;fill-opacity:1;fill-rule:nonzero;stroke:none" />
            </g>
            <g
               transform="translate(127.614,539.2462)"
               id="g3285">
              <path
                 d="m 0,0 c -0.023,0.31 -0.31,0.516 -0.635,0.516 -0.825,0 -0.953,-1.293 -0.953,-1.899 0,-0.613 0.113,-1.943 0.953,-1.943 0.325,0 0.612,0.226 0.635,0.558 l 0.779,0 c 0,-0.763 -0.658,-1.269 -1.384,-1.269 -1.384,0 -1.762,1.498 -1.762,2.617 0,1.18 0.378,2.647 1.762,2.647 C 0.121,1.227 0.779,0.734 0.779,0 L 0,0 z"
                 id="path3287"
                 style="fill:#000000;fill-opacity:1;fill-rule:nonzero;stroke:none" />
            </g>
            <g
               transform="translate(132.62,535.9883)"
               id="g3289">
              <path
                 d="m 0,0 0.922,0 0,-0.711 -2.624,0 0,0.711 0.923,0 0,3.705 -0.771,0 0,0.711 2.314,0 0,-0.711 L 0,3.705 0,0 z"
                 id="path3291"
                 style="fill:#000000;fill-opacity:1;fill-rule:nonzero;stroke:none" />
            </g>
            <g
               transform="translate(136.999,538.3087)"
               id="g3293">
              <path
                 d="m 0,0 1.996,0 0,-0.711 -1.996,0 0,-1.609 2.382,0 0,-0.711 -3.161,0 0,5.127 3.07,0 0,-0.711 L 0,1.385 0,0 z"
                 id="path3295"
                 style="fill:#000000;fill-opacity:1;fill-rule:nonzero;stroke:none" />
            </g>
            <g
               transform="translate(144.114,540.4043)"
               id="g3297">
              <path
                 d="m 0,0 0.711,0 0,-5.127 -0.846,0 -1.831,3.879 -0.015,0 0,-3.879 -0.711,0 0,5.127 0.908,0 1.77,-3.721 0.014,0 L 0,0 z"
                 id="path3299"
                 style="fill:#000000;fill-opacity:1;fill-rule:nonzero;stroke:none" />
            </g>
            <g
               transform="translate(150.111,535.9883)"
               id="g3301">
              <path
                 d="m 0,0 0,-0.711 -3.092,0 0,0.537 1.996,3.879 -1.929,0 0,0.711 2.775,0 0,-0.598 L -2.193,0 0,0 z"
                 id="path3303"
                 style="fill:#000000;fill-opacity:1;fill-rule:nonzero;stroke:none" />
            </g>
            <g
               transform="translate(154.021,539.6857)"
               id="g3305">
              <path
                 d="m 0,0 -0.015,0 -0.56,-2.223 1.127,0 L 0,0 z m -0.756,-2.934 -0.364,-1.474 -0.786,0 1.4,5.127 0.99,0 1.399,-5.127 -0.787,0 -0.37,1.474 -1.482,0 z"
                 id="path3307"
                 style="fill:#000000;fill-opacity:1;fill-rule:nonzero;stroke:none" />
            </g>
            <g
               transform="translate(163.466,538.3087)"
               id="g3309">
              <path
                 d="m 0,0 1.997,0 0,-0.711 -1.997,0 0,-1.609 2.383,0 0,-0.711 -3.161,0 0,5.127 3.07,0 0,-0.711 L 0,1.385 0,0 z"
                 id="path3311"
                 style="fill:#000000;fill-opacity:1;fill-rule:nonzero;stroke:none" />
            </g>
            <g
               transform="translate(174.13,537.3107)"
               id="g3313">
              <path
                 d="m 0,0 0,0.711 1.838,0 0,-2.502 c -0.454,-0.19 -0.984,-0.311 -1.475,-0.311 -1.551,0 -1.974,1.323 -1.974,2.639 0,1.377 0.454,2.625 2.049,2.625 0.749,0 1.4,-0.516 1.4,-1.037 l 0,-0.061 -0.78,0 c -0.075,0.303 -0.28,0.387 -0.62,0.387 -1.089,0 -1.27,-0.877 -1.27,-1.846 0,-0.9 0.129,-1.996 1.263,-1.996 0.227,0 0.431,0.045 0.627,0.121 L 1.058,0 0,0 z"
                 id="path3315"
                 style="fill:#000000;fill-opacity:1;fill-rule:nonzero;stroke:none" />
            </g>
            <g
               transform="translate(180.111,535.9883)"
               id="g3317">
              <path
                 d="m 0,0 0.923,0 0,-0.711 -2.624,0 0,0.711 0.922,0 0,3.705 -0.77,0 0,0.711 2.313,0 0,-0.711 L 0,3.705 0,0 z"
                 id="path3319"
                 style="fill:#000000;fill-opacity:1;fill-rule:nonzero;stroke:none" />
            </g>
            <g
               transform="translate(184.218,540.4043)"
               id="g3321">
              <path
                 d="m 0,0 0,-3.357 c 0,-0.719 0.174,-1.127 0.953,-1.127 0.778,0 0.952,0.408 0.952,1.127 l 0,3.357 0.779,0 0,-3.41 c 0,-1.111 -0.537,-1.785 -1.731,-1.785 -1.203,0 -1.733,0.674 -1.733,1.785 L -0.78,0 0,0 z"
                 id="path3323"
                 style="fill:#000000;fill-opacity:1;fill-rule:nonzero;stroke:none" />
            </g>
            <g
               transform="translate(191.765,540.4043)"
               id="g3325">
              <path
                 d="m 0,0 0.779,0 -1.399,-5.127 -1.082,0 -1.383,5.127 0.778,0 1.149,-4.355 0.016,0 L 0,0 z"
                 id="path3327"
                 style="fill:#000000;fill-opacity:1;fill-rule:nonzero;stroke:none" />
            </g>
            <g
               transform="translate(195.379,538.3087)"
               id="g3329">
              <path
                 d="m 0,0 1.997,0 0,-0.711 -1.997,0 0,-1.609 2.383,0 0,-0.711 -3.161,0 0,5.127 3.07,0 0,-0.711 L 0,1.385 0,0 z"
                 id="path3331"
                 style="fill:#000000;fill-opacity:1;fill-rule:nonzero;stroke:none" />
            </g>
            <g
               transform="translate(202.495,540.4043)"
               id="g3333">
              <path
                 d="m 0,0 0.711,0 0,-5.127 -0.847,0 -1.83,3.879 -0.015,0 0,-3.879 -0.711,0 0,5.127 0.908,0 1.769,-3.721 0.015,0 L 0,0 z"
                 id="path3335"
                 style="fill:#000000;fill-opacity:1;fill-rule:nonzero;stroke:none" />
            </g>
            <g
               transform="translate(207.335,535.2775)"
               id="g3337">
              <path
                 d="m 0,0 -0.779,0 0,4.416 -1.384,0 0,0.711 3.547,0 0,-0.711 L 0,4.416 0,0 z"
                 id="path3339"
                 style="fill:#000000;fill-opacity:1;fill-rule:nonzero;stroke:none" />
            </g>
            <g
               transform="translate(211.714,538.3087)"
               id="g3341">
              <path
                 d="m 0,0 1.996,0 0,-0.711 -1.996,0 0,-1.609 2.382,0 0,-0.711 -3.161,0 0,5.127 3.07,0 0,-0.711 L 0,1.385 0,0 z"
                 id="path3343"
                 style="fill:#000000;fill-opacity:1;fill-rule:nonzero;stroke:none" />
            </g>
            <g
               transform="translate(218.225,539.6935)"
               id="g3345">
              <path
                 d="m 0,0 1.383,0 0,0.711 -3.546,0 0,-0.711 1.383,0 0,-4.416 0.78,0 L 0,0 z"
                 id="path3347"
                 style="fill:#000000;fill-opacity:1;fill-rule:nonzero;stroke:none" />
            </g>
            <g
               transform="translate(223.132,537.3107)"
               id="g3349">
              <path
                 d="m 0,0 0,0.711 1.838,0 0,-2.502 c -0.453,-0.19 -0.983,-0.311 -1.475,-0.311 -1.55,0 -1.974,1.323 -1.974,2.639 0,1.377 0.455,2.625 2.05,2.625 0.748,0 1.399,-0.516 1.399,-1.037 l 0,-0.061 -0.779,0 c -0.076,0.303 -0.28,0.387 -0.62,0.387 -1.089,0 -1.27,-0.877 -1.27,-1.846 0,-0.9 0.128,-1.996 1.262,-1.996 0.227,0 0.431,0.045 0.628,0.121 L 1.059,0 0,0 z"
                 id="path3351"
                 style="fill:#000000;fill-opacity:1;fill-rule:nonzero;stroke:none" />
            </g>
            <g
               transform="translate(229.719,540.4043)"
               id="g3353">
              <path
                 d="m 0,0 0.711,0 0,-5.127 -0.847,0 -1.83,3.879 -0.016,0 0,-3.879 -0.711,0 0,5.127 0.909,0 1.769,-3.721 0.015,0 L 0,0 z"
                 id="path3355"
                 style="fill:#000000;fill-opacity:1;fill-rule:nonzero;stroke:none" />
            </g>
            <g
               transform="translate(234.181,539.6857)"
               id="g3357">
              <path
                 d="m 0,0 -0.016,0 -0.56,-2.223 1.127,0 L 0,0 z m -0.756,-2.934 -0.363,-1.474 -0.788,0 1.4,5.127 0.991,0 1.398,-5.127 -0.786,0 -0.371,1.474 -1.481,0 z"
                 id="path3359"
                 style="fill:#000000;fill-opacity:1;fill-rule:nonzero;stroke:none" />
            </g>
            <g
               transform="translate(212.819,550.4199)"
               id="g3361">
              <path
                 d="m 0,0 -0.587,0 -0.752,0.984 0.783,0 L 0,0 z"
                 id="path3363"
                 style="fill:#000000;fill-opacity:1;fill-rule:nonzero;stroke:none" />
            </g>
          </g>
        </g>
      </g>
    </g>
  </g>
</svg>
